<svg id="b8470054-27c6-4f8b-a2e0-a48fb711d725" data-name="Layer 1" xmlns="http://www.w3.org/2000/svg" viewBox="0 0 918.23 1129.85"><defs><style>.ae1da2df-6c14-4927-b370-466e884fd237{font-size:98.79px;font-family:Montserrat-ExtraBold, Montserrat;font-weight:800;}.ea98c56b-9b92-41a7-b4e1-c04edb9b916e{font-size:64.15px;font-family:Montserrat-Light, Montserrat;font-weight:300;}.a0dc0788-0f59-4366-ac7b-6b848300ad56{fill:none;stroke-width:1.82px;}.a0dc0788-0f59-4366-ac7b-6b848300ad56,.bd8a5302-21d9-4027-b965-00f84b8638e0{stroke:#000;stroke-miterlimit:10;}.bd8a5302-21d9-4027-b965-00f84b8638e0{fill:#fff;stroke-width:1.73px;}</style></defs><text class="ae1da2df-6c14-4927-b370-466e884fd237" transform="translate(136.77 398.79) rotate(-56.02)">B</text><text class="ae1da2df-6c14-4927-b370-466e884fd237" transform="translate(189.53 324.15) rotate(-40.13)">U</text><text class="ae1da2df-6c14-4927-b370-466e884fd237" transform="translate(262.16 265.91) rotate(-24.35)">B</text><text class="ae1da2df-6c14-4927-b370-466e884fd237" transform="matrix(0.99, -0.15, 0.15, 0.99, 346.33, 230.14)">B</text><text class="ae1da2df-6c14-4927-b370-466e884fd237" transform="matrix(1, 0.1, -0.1, 1, 437.27, 219.1)">L</text><text class="ae1da2df-6c14-4927-b370-466e884fd237" transform="translate(512.96 228.16) rotate(19.3)">E</text><text class="ae1da2df-6c14-4927-b370-466e884fd237" transform="translate(590.02 258.7) rotate(30.18)"> </text><text class="ae1da2df-6c14-4927-b370-466e884fd237" transform="translate(629.41 281.57) rotate(40.93)">T</text><text class="ae1da2df-6c14-4927-b370-466e884fd237" transform="matrix(0.58, 0.82, -0.82, 0.58, 687.69, 334.38)">E</text><text class="ae1da2df-6c14-4927-b370-466e884fd237" transform="matrix(0.35, 0.94, -0.94, 0.35, 733.91, 402.21)">A</text><text class="ea98c56b-9b92-41a7-b4e1-c04edb9b916e" transform="translate(76.49 719.9) rotate(61.72)">R</text><text class="ea98c56b-9b92-41a7-b4e1-c04edb9b916e" transform="matrix(0.6, 0.8, -0.8, 0.6, 107.73, 774.7)">E</text><text class="ea98c56b-9b92-41a7-b4e1-c04edb9b916e" transform="matrix(0.71, 0.7, -0.7, 0.71, 144.84, 821.62)">F</text><text class="ea98c56b-9b92-41a7-b4e1-c04edb9b916e" transform="matrix(0.81, 0.58, -0.58, 0.81, 186.78, 861.14)">R</text><text class="ea98c56b-9b92-41a7-b4e1-c04edb9b916e" transform="matrix(0.89, 0.45, -0.45, 0.89, 239.24, 896.8)">E</text><text class="ea98c56b-9b92-41a7-b4e1-c04edb9b916e" transform="translate(293.42 922.26) rotate(18.06)">S</text><text class="ea98c56b-9b92-41a7-b4e1-c04edb9b916e" transform="translate(347.32 938.93) rotate(8.95)">H</text><text class="ea98c56b-9b92-41a7-b4e1-c04edb9b916e" transform="translate(415.37 947.42) rotate(1.61)"> </text><text class="ea98c56b-9b92-41a7-b4e1-c04edb9b916e" transform="matrix(1, -0.08, 0.08, 1, 447.82, 948.1)">Y</text><text class="ea98c56b-9b92-41a7-b4e1-c04edb9b916e" transform="translate(503.06 942.77) rotate(-13.89)">O</text><text class="ea98c56b-9b92-41a7-b4e1-c04edb9b916e" transform="translate(572.16 923.9) rotate(-24.17)">U</text><text class="ea98c56b-9b92-41a7-b4e1-c04edb9b916e" transform="translate(632.58 894.43) rotate(-31.48)"> </text><text class="ea98c56b-9b92-41a7-b4e1-c04edb9b916e" transform="translate(660.05 876.94) rotate(-36.93)">S</text><text class="ea98c56b-9b92-41a7-b4e1-c04edb9b916e" transform="matrix(0.68, -0.73, 0.73, 0.68, 704.18, 842.12)">O</text><text class="ea98c56b-9b92-41a7-b4e1-c04edb9b916e" transform="translate(751.78 788.61) rotate(-57.23)">U</text><text class="ea98c56b-9b92-41a7-b4e1-c04edb9b916e" transform="matrix(0.4, -0.92, 0.92, 0.4, 787.03, 730.37)">L</text><circle class="a0dc0788-0f59-4366-ac7b-6b848300ad56" cx="434.41" cy="554.1" r="307"/><circle class="a0dc0788-0f59-4366-ac7b-6b848300ad56" cx="540" cy="540" r="433.5" transform="translate(-329.27 554.1) rotate(-45)"/><path d="M664.19,532.53H422.38a22,22,0,0,1-21.95-21.95h0a22,22,0,0,1,21.95-21.95H664.19a22,22,0,0,1,21.94,21.95h0A22,22,0,0,1,664.19,532.53Z" transform="translate(-105.59 14.1)"/><path d="M543.28,352.41h0A119.72,119.72,0,0,0,423.56,472.13v8.49H663v-8.49A119.73,119.73,0,0,0,543.28,352.41Z" transform="translate(-105.59 14.1)"/><path d="M663,541.64H423.56l48.18,297.23s29.54,7.49,75,7.49,70.83-9.89,70.83-9.89Z" transform="translate(-105.59 14.1)"/><path class="bd8a5302-21d9-4027-b965-00f84b8638e0" d="M531.11,396.74h0a12.21,12.21,0,0,1-12.17-12.18l-18.49-91.47a12.21,12.21,0,0,1,12.17-12.17h0a12.21,12.21,0,0,1,12.18,12.17l18.48,91.47A12.21,12.21,0,0,1,531.11,396.74Z" transform="translate(-105.59 14.1)"/><path class="bd8a5302-21d9-4027-b965-00f84b8638e0" d="M514.43,301.66h-3.61a10.41,10.41,0,0,1-10.37-10.37h0a10.41,10.41,0,0,1,10.37-10.37h3.61a10.41,10.41,0,0,1,10.37,10.37h0A10.41,10.41,0,0,1,514.43,301.66Z" transform="translate(-105.59 14.1)"/></svg>