<svg id="aefe7b73-51dd-4d12-aaa7-c6c1e93bc20f" data-name="Layer 1" xmlns="http://www.w3.org/2000/svg" viewBox="0 0 918.48 1131.22"><defs><style>.e32bdeaa-3c13-46a1-9c3c-ccd3155ae008{font-size:98.79px;font-family:Montserrat-ExtraBold, Montserrat;font-weight:800;}.aaf50d44-6b38-4432-98b1-baca12ec3206,.bc5942e7-5923-4661-b223-f0248bf7eae0,.e32bdeaa-3c13-46a1-9c3c-ccd3155ae008{fill:#fff;stroke:#fff;stroke-miterlimit:10;}.bc5942e7-5923-4661-b223-f0248bf7eae0{font-size:64.15px;font-family:Montserrat-Light, Montserrat;font-weight:300;}</style></defs><text class="e32bdeaa-3c13-46a1-9c3c-ccd3155ae008" transform="translate(136.37 399.45) rotate(-56.02)">B</text><text class="e32bdeaa-3c13-46a1-9c3c-ccd3155ae008" transform="translate(189.13 324.82) rotate(-40.13)">U</text><text class="e32bdeaa-3c13-46a1-9c3c-ccd3155ae008" transform="translate(261.75 266.58) rotate(-24.35)">B</text><text class="e32bdeaa-3c13-46a1-9c3c-ccd3155ae008" transform="matrix(0.99, -0.15, 0.15, 0.99, 345.92, 230.8)">B</text><text class="e32bdeaa-3c13-46a1-9c3c-ccd3155ae008" transform="matrix(1, 0.1, -0.1, 1, 436.86, 219.76)">L</text><text class="e32bdeaa-3c13-46a1-9c3c-ccd3155ae008" transform="translate(512.55 228.82) rotate(19.3)">E</text><text class="e32bdeaa-3c13-46a1-9c3c-ccd3155ae008" transform="translate(589.62 259.37) rotate(30.18)"> </text><text class="e32bdeaa-3c13-46a1-9c3c-ccd3155ae008" transform="translate(629 282.24) rotate(40.93)">T</text><text class="e32bdeaa-3c13-46a1-9c3c-ccd3155ae008" transform="matrix(0.58, 0.82, -0.82, 0.58, 687.28, 335.05)">E</text><text class="e32bdeaa-3c13-46a1-9c3c-ccd3155ae008" transform="matrix(0.35, 0.94, -0.94, 0.35, 733.5, 402.88)">A</text><text class="bc5942e7-5923-4661-b223-f0248bf7eae0" transform="translate(76.09 720.57) rotate(61.72)">R</text><text class="bc5942e7-5923-4661-b223-f0248bf7eae0" transform="matrix(0.6, 0.8, -0.8, 0.6, 107.32, 775.37)">E</text><text class="bc5942e7-5923-4661-b223-f0248bf7eae0" transform="matrix(0.71, 0.7, -0.7, 0.71, 144.43, 822.28)">F</text><text class="bc5942e7-5923-4661-b223-f0248bf7eae0" transform="matrix(0.81, 0.58, -0.58, 0.81, 186.37, 861.8)">R</text><text class="bc5942e7-5923-4661-b223-f0248bf7eae0" transform="matrix(0.89, 0.45, -0.45, 0.89, 238.83, 897.46)">E</text><text class="bc5942e7-5923-4661-b223-f0248bf7eae0" transform="translate(293.02 922.92) rotate(18.06)">S</text><text class="bc5942e7-5923-4661-b223-f0248bf7eae0" transform="translate(346.91 939.59) rotate(8.95)">H</text><text class="bc5942e7-5923-4661-b223-f0248bf7eae0" transform="translate(414.96 948.08) rotate(1.61)"> </text><text class="bc5942e7-5923-4661-b223-f0248bf7eae0" transform="matrix(1, -0.08, 0.08, 1, 447.41, 948.76)">Y</text><text class="bc5942e7-5923-4661-b223-f0248bf7eae0" transform="translate(502.65 943.43) rotate(-13.89)">O</text><text class="bc5942e7-5923-4661-b223-f0248bf7eae0" transform="translate(571.75 924.56) rotate(-24.17)">U</text><text class="bc5942e7-5923-4661-b223-f0248bf7eae0" transform="translate(632.17 895.09) rotate(-31.48)"> </text><text class="bc5942e7-5923-4661-b223-f0248bf7eae0" transform="translate(659.65 877.6) rotate(-36.93)">S</text><text class="bc5942e7-5923-4661-b223-f0248bf7eae0" transform="matrix(0.68, -0.73, 0.73, 0.68, 703.77, 842.78)">O</text><text class="bc5942e7-5923-4661-b223-f0248bf7eae0" transform="translate(751.37 789.28) rotate(-57.23)">U</text><text class="bc5942e7-5923-4661-b223-f0248bf7eae0" transform="matrix(0.4, -0.92, 0.92, 0.4, 786.62, 731.04)">L</text><circle class="aaf50d44-6b38-4432-98b1-baca12ec3206" cx="434" cy="554.76" r="307"/><circle class="aaf50d44-6b38-4432-98b1-baca12ec3206" cx="540" cy="540" r="433.5" transform="translate(-329.67 554.76) rotate(-45)"/><path class="aaf50d44-6b38-4432-98b1-baca12ec3206" d="M664.19,532.53H422.38a22,22,0,0,1-21.95-21.95h0a22,22,0,0,1,21.95-21.95H664.19a22,22,0,0,1,21.94,21.95h0A22,22,0,0,1,664.19,532.53Z" transform="translate(-106 14.76)"/><path class="aaf50d44-6b38-4432-98b1-baca12ec3206" d="M543.28,352.41h0A119.72,119.72,0,0,0,423.56,472.13v8.49H663v-8.49A119.73,119.73,0,0,0,543.28,352.41Z" transform="translate(-106 14.76)"/><path class="aaf50d44-6b38-4432-98b1-baca12ec3206" d="M663,541.64H423.56l48.18,297.23s29.54,7.49,75,7.49,70.83-9.89,70.83-9.89Z" transform="translate(-106 14.76)"/><path class="aaf50d44-6b38-4432-98b1-baca12ec3206" d="M531.11,396.74h0a12.21,12.21,0,0,1-12.17-12.18l-18.49-91.47a12.21,12.21,0,0,1,12.17-12.17h0a12.21,12.21,0,0,1,12.18,12.17l18.48,91.47A12.21,12.21,0,0,1,531.11,396.74Z" transform="translate(-106 14.76)"/><path class="aaf50d44-6b38-4432-98b1-baca12ec3206" d="M514.43,301.66h-3.61a10.41,10.41,0,0,1-10.37-10.37h0a10.41,10.41,0,0,1,10.37-10.37h3.61a10.41,10.41,0,0,1,10.37,10.37h0A10.41,10.41,0,0,1,514.43,301.66Z" transform="translate(-106 14.76)"/></svg>