<svg id="Layer_1" data-name="Layer 1" xmlns="http://www.w3.org/2000/svg" viewBox="0 0 258.46 264.88"><defs><style>.cls-1,.cls-2{fill:#004571;}.cls-2,.cls-3{font-size:26px;font-family:OldEnglishTextMT, Old English Text MT;letter-spacing:0.05em;}.cls-3{fill:#db5c49;}</style></defs><path class="cls-1" d="M191.78,144.9a12.84,12.84,0,0,1-.57,4.11,7.74,7.74,0,0,1,6.95-.55C196.76,145.82,192.61,145,191.78,144.9Z" transform="translate(-20.77 -15.08)"/><path class="cls-1" d="M191.8,143.68a7.76,7.76,0,0,1,5.28-5.05c-2.56-1.15-6,.46-7.05,1a6.69,6.69,0,0,1,1.64,3.59C191.76,143.5,191.8,143.68,191.8,143.68Z" transform="translate(-20.77 -15.08)"/><path class="cls-1" d="M186.07,141.24c-2.93,2.2-1.87,4.32-2.57,5.29a.56.56,0,0,1-.42.22,3.7,3.7,0,0,1-1.15-.61c-2.86-2.18-9.5-5.6-5.09-11s3.4-16.38-4.4-19c-.57-.2-1.13-.37-1.67-.53-1.29,1-6.23,5.39-6.23,12.16a20.47,20.47,0,0,0,.35,4.13c3.63.62,4.88,3.53,3.86,5.23-.67-.09-2.46,0-2.79,2.91-.41,3.64,2.2,9.09,9.88,13.63,0,0-1.07-1.65-1.93-3.31a2.34,2.34,0,0,1,.27.15c6.3,3.25,10.43,5.57,13.51,2.32,2.27-2.11,3.12-5.92,3.12-7.48C190.81,142.18,189,139,186.07,141.24Z" transform="translate(-20.77 -15.08)"/><path class="cls-1" d="M195.64,113.63a3.13,3.13,0,0,1,.53,4c2.11-1,2.41-4.06,2.41-4.06A2.88,2.88,0,0,1,195.64,113.63Z" transform="translate(-20.77 -15.08)"/><path class="cls-1" d="M141.66,166.05a7.75,7.75,0,0,1,1.59,6.86c2.29-1.68,2.57-5.56,2.61-6.67A11.71,11.71,0,0,1,141.66,166.05Z" transform="translate(-20.77 -15.08)"/><path class="cls-1" d="M202.32,108.42A3.53,3.53,0,0,1,206,111c.76-2.54-1.5-5.1-1.5-5.1A3.25,3.25,0,0,1,202.32,108.42Z" transform="translate(-20.77 -15.08)"/><path class="cls-1" d="M190.38,151a11.55,11.55,0,0,1-2.61,3.3,7.74,7.74,0,0,1,6.5,2.71C194.25,154.15,191.26,151.66,190.38,151Z" transform="translate(-20.77 -15.08)"/><path class="cls-1" d="M147.94,165.76a7.73,7.73,0,0,1,4.5,5.32c1.33-2.68-.45-6.5-.82-7.25A13.09,13.09,0,0,1,147.94,165.76Z" transform="translate(-20.77 -15.08)"/><path class="cls-1" d="M154.87,159.33a6.72,6.72,0,0,1-2,3.43l-.3.37a7.75,7.75,0,0,1,7.18,1.33C159.23,161.72,155.91,159.85,154.87,159.33Z" transform="translate(-20.77 -15.08)"/><path class="cls-1" d="M158.41,55.07a4.84,4.84,0,0,1-1.79-3,5,5,0,0,0-.41,3.93A3.69,3.69,0,0,0,158.41,55.07Z" transform="translate(-20.77 -15.08)"/><path class="cls-1" d="M120.11,73.92c10.79,4.43,17.83,7.15,22.56,9.15-.54,1.38-.51,3.94,5.15,6.31,0,0-3.07,2.53,3.46,5.19,0,0-2,2.4,4,4.67,0,0,3.33,4.79.27,8.39,0,0,2.93-.4,3.46-2.26,0,0,2.13,3.32-.26,5.45a6.25,6.25,0,0,0,6.76-5.06c1.3,1.14,4.48,3.26,10.49,3.4,8.25.2,7.79,3.2,7.79,3.2a1.52,1.52,0,0,0,.13-2.53s4,.46,4.93,3c0,0,1.67-1.59.2-3.06a4.58,4.58,0,0,1,4.4,2.2,2.33,2.33,0,0,0-.47-2.77,4.29,4.29,0,0,0,1.61.24v0a2.8,2.8,0,0,0,5,2.6,2.12,2.12,0,0,0,.11-.21l0-.06a3.12,3.12,0,0,0,.07-2.28,6.64,6.64,0,0,0-3-3.21h0a4.22,4.22,0,0,1,1.29-.21,3.16,3.16,0,0,0,5.9.05A3.18,3.18,0,0,0,204,104l-.09-.25,0-.08a3.57,3.57,0,0,0-1.83-1.8,6.12,6.12,0,0,0-3.27-.35,5.36,5.36,0,0,1,.46-.55,4.23,4.23,0,0,1,.87-.48,3.16,3.16,0,0,0,5.51-2.13,3.13,3.13,0,0,0-.74-2,1.12,1.12,0,0,0-.18-.2s0-.05-.05-.06a3.49,3.49,0,0,0-2.36-1,7.41,7.41,0,0,0-4.59,1.84,6.21,6.21,0,0,0-.18-1.79c-1.34,3.88-5.26,5.68-7.25,6.37a18.74,18.74,0,0,1-7.34.08,4.48,4.48,0,0,0,1.17-1c-8.63.64-12.51-2.41-14.19-4.68a5.41,5.41,0,0,1-.86-1.88,14.34,14.34,0,0,0,9,5.06c2.93-10.52-6.79-20.38-6.79-20.38a12,12,0,0,1-.27,6.13,7.16,7.16,0,0,0-4.26-4.93,11.4,11.4,0,0,1-1.07,9.39,7.16,7.16,0,0,0-3.73-5.8A13.28,13.28,0,0,1,159.41,92c-.27-3.59-3.4-7.19-3.4-7.19a6.65,6.65,0,0,1-2.34,5.77.2.2,0,0,0-.06-.07c-.29-2.4-1.79-8.74-9.65-13.09-9.86-5.47-41.84-11.33-54.09-32C89.87,45.41,91.86,62.33,120.11,73.92Z" transform="translate(-20.77 -15.08)"/><path class="cls-1" d="M205,101.07a3.54,3.54,0,0,1,4.37,1.08c-.23-2.65-3.27-4.2-3.27-4.2A3.23,3.23,0,0,1,205,101.07Z" transform="translate(-20.77 -15.08)"/><path class="cls-1" d="M94,131.61s-2-.67-2-4c0,0-3.46,7.6,4,14.26a5.84,5.84,0,0,1-4.8-2.27s2.26,9.59,15.32,12c8.12,1.49,13.2-.63,15.62-4.37a11,11,0,0,0,2.1-6.76,18.22,18.22,0,0,0-.66-4.66c-2.23-8.25-7.88-13.16-12.64-17a57.19,57.19,0,0,1-6-5.26,7.28,7.28,0,0,1-2.3-4.85v-.13a4.93,4.93,0,0,1,1.33-3.73,4.8,4.8,0,0,1,3.4-1.2c3.09,0,7.44,2.13,10.62,7a39.66,39.66,0,0,0,9.21,10.26,8.31,8.31,0,0,0-4.64,3.55s3-2.28,10.17.86a6.23,6.23,0,0,0-3.61,1.7s8-1.5,14.38,3.7c5.83,4.73,3.78,9.63,1.1,9.86-.32-.6-1.4-2-4-.57-3.2,1.8-6.1,7.09-5.3,16,0,0,.72-1.83,1.56-3.5,0,.11,0,.2,0,.31,1,7,1.56,11.72,6,12.32,3,.61,6.63-.92,7.9-1.83,2.5-1.8,4-5.09.5-6.19s-4.6,1-5.8,1a.58.58,0,0,1-.42-.22,3.39,3.39,0,0,1-.17-1.29c.1-3.59-1-11,6-10.59s15.29-6.79,12.89-14.68-6.1-11.6-6.1-11.6,4.61,1.8,5.8,5.9a15.07,15.07,0,0,1,4.5-9.19,33.45,33.45,0,0,0,5.59-6.1s-4.29.2-7.19-1.7c0,0-2.9,5.5-11.19,3.7,0,0,3.29-1.5,3.49-4.4,0,0-3.19,2.5-6,.8,0,0,4.9-3.29,1.8-8.19,0,0-1.8-.3-2-1,0,0,.1,16.19-10,21.18s-10.69-7.09-10.69-7.09a8.21,8.21,0,0,0-1.23,5.27c-2.25-1.46-5.8-4.43-9.59-10.22S112,100,107.32,100a8.37,8.37,0,0,0-5.9,2.22A8.51,8.51,0,0,0,99,108.54v.2a10.88,10.88,0,0,0,3.23,7.2c2.74,3,6.53,5.46,10,8.62s6.49,6.87,7.92,12.18a14.14,14.14,0,0,1,.54,3.72,7,7,0,0,1-2,5.29,6.53,6.53,0,0,1-4.16,1.72c-3.24-.22-8.82-1.6-8.91-8.4-.14-9.59-4.27-15.19-4.27-15.19s1.47,4.67-.26,8.4c0,0-2.53-13.33-12.39-18.92C88.67,113.36,94.66,123.08,94,131.61Z" transform="translate(-20.77 -15.08)"/><path class="cls-1" d="M116.65,88s1.46,5.73,11.58,7.46c8.68,1.49,19.51,6.21,21.5,13.57a36.34,36.34,0,0,0,1.52-9.56V98.38a4.15,4.15,0,0,1-1.39-2.06,3.27,3.27,0,0,1-.08-1.1c-2.35-1.13-3.62-2.41-3.84-3.89a2.93,2.93,0,0,1,.13-1.44c-4.24-2.1-5-4.43-4.8-6.11-2.23-.92-4.91-2-8.2-3.32-2.74-1.1-6-2.4-9.74-3.93-7.23-2.51-15-5.66-20-9,0,0,3.87,10.52,24,16.12,0,0-15.32-2.54-20.38-6.67,0,0,5.46,10.4,21.85,13.06A26.49,26.49,0,0,1,116.65,88Z" transform="translate(-20.77 -15.08)"/><path class="cls-1" d="M162.28,66.06c.06,2.33,1.46,3.53,5.26,3.4s5-2.2,5-2.2a7,7,0,0,1-4.53.4c-2.93-.53-1.66-3.06,2.27-4.8a10.66,10.66,0,0,1,7.46-.4,8.76,8.76,0,0,0-6.8-4.26c-.59,2.46-.93,1.4-4.86,3.13S162.28,66.06,162.28,66.06Z" transform="translate(-20.77 -15.08)"/><path class="cls-1" d="M145.29,76.12s7.73,4.46,9.06,11.72a10.25,10.25,0,0,0-.2-6.86A15,15,0,0,1,159.68,89s2-4.93.53-8.06c0,0,4.46,1.34,5.4,4.93,0,0,1.4-5.19-1.8-7.92,0,0,4.39-.14,6.59,3.33,0,0,.33-3.87-4.13-7.13s-6.52-9-2.53-12.19,5.26-1.53,6.13-3.46-2.2-4-5.33-2.4a1.74,1.74,0,0,0-2.2-1.47c-2,.33-5,2.73-7.19,2.07a4.32,4.32,0,0,1,.6,4.53,6.3,6.3,0,0,0-2.34-4.47c-2.26-1.73-2.92-5.19-2.92-5.19S146.75,55.94,150,62C150,62,144.48,66.33,145.29,76.12Zm17.25-18.65a3.89,3.89,0,0,1-3.79,2.13S158,58,162.54,57.47Z" transform="translate(-20.77 -15.08)"/><path class="cls-1" d="M179.67,97.87A23,23,0,0,0,182.36,95c5.09-6.51,7.22-4.35,7.22-4.35a1.52,1.52,0,0,0-2-1.61s2.76-2.93,5.35-2.18c0,0-.29-2.28-2.34-2A4.57,4.57,0,0,1,195,82.61a2.33,2.33,0,0,0-2.5-1.28,4.5,4.5,0,0,0,1.16-1.14h0a2.75,2.75,0,0,0,1.76,1.44,2.81,2.81,0,0,0,3.45-2,2.75,2.75,0,0,0-.16-1.9,1.51,1.51,0,0,0-.11-.22.09.09,0,0,0,0-.06,3.13,3.13,0,0,0-1.78-1.41,6.61,6.61,0,0,0-4.38.51s0,0,0,0A4.19,4.19,0,0,1,193,75.4a3.16,3.16,0,0,0,1.87-6l-.26-.08-.08,0a3.57,3.57,0,0,0-2.53.4,6.1,6.1,0,0,0-2.23,2.41,4.35,4.35,0,0,1-.17-.69,4.75,4.75,0,0,1,.13-1A3.22,3.22,0,0,0,192,69.13a3.17,3.17,0,0,0-.66-4.43,3.12,3.12,0,0,0-2.06-.61l-.27,0h-.08a3.52,3.52,0,0,0-2.21,1.3,7.47,7.47,0,0,0-1.25,4.78,6.27,6.27,0,0,0-1.55-.92c2.32,3.39,1.43,7.62.78,9.62a18.51,18.51,0,0,1-4.29,5.94,4.33,4.33,0,0,0-.08-1.51,28.57,28.57,0,0,1-2.2,3A20,20,0,0,1,179.67,97.87Z" transform="translate(-20.77 -15.08)"/><path class="cls-1" d="M197.46,73.38a3.54,3.54,0,0,1,4.28-1.4c-1.59-2.13-5-1.84-5-1.84A3.25,3.25,0,0,1,197.46,73.38Z" transform="translate(-20.77 -15.08)"/><path class="cls-1" d="M199.33,79.43a2.86,2.86,0,0,1-1.66,2.41,3.15,3.15,0,0,1,3.49,2C201.58,81.47,199.33,79.43,199.33,79.43Z" transform="translate(-20.77 -15.08)"/><path class="cls-1" d="M193.14,66.88A3.52,3.52,0,0,1,196.6,64c-2.26-1.39-5.32.13-5.32.13A3.27,3.27,0,0,1,193.14,66.88Z" transform="translate(-20.77 -15.08)"/><path class="cls-1" d="M268.6,148.87c-3.54-5.76-7.62-17.35-7.62-18.7,0-5.65-1.73-8.58-3.2-10-1.84-1.84-4.28-2.62-7.54-2.26-11.29,1.26-11.7,13.67-12.1,25.68-.22,6.94-.52,15.85-8.16,25.17,8.64-13.4,5.42-30.44.29-57.48C222.89,72.34,242.52,42.32,242.71,42a2.65,2.65,0,0,0-.38-3.41L218.11,15.8a2.66,2.66,0,0,0-1.82-.72H83.71a2.7,2.7,0,0,0-1.83.72L57.67,38.61A2.66,2.66,0,0,0,57.29,42c.2.29,19.84,30.22,12.45,69.2-5.13,27-8.36,44.08.28,57.48-7.63-9.32-7.94-18.23-8.16-25.17-.39-12-.8-24.42-12.1-25.68-3.27-.37-5.71.42-7.54,2.26-1.47,1.47-3.21,4.4-3.2,10.15,0,1.25-4.08,12.84-7.62,18.6-2.12,3.45-2.65,7.17-1.43,10.19.87,2.16,3,5,8.42,6.63-1.12,4.86-4.48,28.24,30,43.86,10.09,4.58,19.87,8.74,29.33,12.76,21.27,9.05,39.64,16.87,49.46,24.48a.9.9,0,0,0,.54.18h4.61a.92.92,0,0,0,.55-.19c9.82-7.6,28.18-15.41,49.44-24.45,9.46-4,19.24-8.19,29.34-12.77,34.33-15.57,31.12-38.84,30-43.8a.13.13,0,0,1,0-.06c5.38-1.63,7.55-4.47,8.41-6.63C271.25,156,270.73,152.32,268.6,148.87ZM75,112.22c6.8-35.8-7.65-63.77-12-71.23L84.77,20.4H215.23L237.1,41c-4.41,7.46-18.86,35.43-12.06,71.23,7.47,39.34,10.26,54.06-18.71,69-10.13,5.22-19.38,9.09-27.55,12.51-13.4,5.6-23.57,9.85-28.78,16.51-5.21-6.66-15.38-10.91-28.78-16.51-8.16-3.42-17.42-7.29-27.55-12.51C64.7,166.28,67.5,151.56,75,112.22ZM31.61,158.4c-1-2.5-.53-5.64,1.3-8.6,2.79-4.54,6.13-13.05,7.38-17.32a14.15,14.15,0,0,0,4.57,6.25.86.86,0,0,0,.45.54.92.92,0,0,0,.39.09.74.74,0,0,0,.14,0c.15.08.3.17.46.24a9.35,9.35,0,0,0,7.82-.37A22.59,22.59,0,0,1,48.9,149.4,61.87,61.87,0,0,0,39.1,164C35.24,162.91,32.65,161,31.61,158.4ZM47,137.91l4-8.14a7.36,7.36,0,0,1,3.78,3.95,4.7,4.7,0,0,1-.12,3.23c-2.9,1.6-5.46,2-7.61,1Zm183.94,70c-10.07,4.57-19.85,8.72-29.3,12.74-21.2,9-39.53,16.82-49.59,24.51h-4c-10.06-7.69-28.4-15.5-49.62-24.52-9.45-4-19.22-8.17-29.3-12.74-33.37-15.14-30.21-36.86-29-41.66.05-.07.12-.12.14-.2.67-2.12,5-10.17,10-15.47a24.26,24.26,0,0,0,6-12.77,6.48,6.48,0,0,0,.28-4.63c-.69-2.19-2.54-4-5.49-5.44a.89.89,0,0,0-1.18.41L45.45,137c-3.19-2.59-4.33-7.64-4.35-7.7a.82.82,0,0,0-.26-.43c.23-4.15,1.52-6.36,2.64-7.47a6.53,6.53,0,0,1,4.83-1.82,10.83,10.83,0,0,1,1.25.07c9.09,1,10.07,10.15,10.52,24,.43,13,1.07,32.52,45.36,49.13l.27.1c4.75,2.12,9.26,4,13.46,5.76,2.86,1.2,5.54,2.33,8.06,3.42,11.75,5.81,17.15,10.3,19.62,13,.13.23.27.45.39.68a2.55,2.55,0,0,0,1,1.09,4.68,4.68,0,0,1,.66,1.3.9.9,0,0,0,.39.61.86.86,0,0,0,.7.12l.6-.14a.9.9,0,0,0,.66-.75,4.17,4.17,0,0,1,.57-1.17,2.6,2.6,0,0,0,1-1.06c.12-.24.26-.46.4-.7,2.4-2.69,7.72-7.14,19.46-13,2.56-1.11,5.29-2.26,8.2-3.48,4.21-1.75,8.7-3.64,13.46-5.76l.27-.1c44.29-16.61,44.94-36.18,45.36-49.13.45-13.83,1.43-23,10.52-24,2.64-.3,4.64.3,6.09,1.75,1.11,1.12,2.41,3.32,2.63,7.56a1,1,0,0,0-.16.34c0,.06-1.15,5.1-4.35,7.7l-4.33-8.79a.88.88,0,0,0-1.18-.41c-2.94,1.42-4.79,3.24-5.49,5.44a6.49,6.49,0,0,0,.28,4.63,24.39,24.39,0,0,0,6,12.77,57.29,57.29,0,0,1,10,15.35C260.94,170,265.13,192.42,230.9,207.94Zm22.24-70,0,0c-2.15.95-4.71.61-7.61-1a4.76,4.76,0,0,1-.14-3.2,7.4,7.4,0,0,1,3.79-4Zm15.25,20.49c-1,2.56-3.59,4.48-7.4,5.61a62.27,62.27,0,0,0-9.78-14.62,22.51,22.51,0,0,1-5.22-10.2,9.39,9.39,0,0,0,7.82.37c.16-.07.31-.16.46-.24a.93.93,0,0,0,.13,0,.86.86,0,0,0,.39-.09.9.9,0,0,0,.46-.54,14,14,0,0,0,4.5-6.08c1.27,4.25,4.57,12.65,7.34,17.15C268.92,152.76,269.39,155.9,268.39,158.4Z" transform="translate(-20.77 -15.08)"/><text class="cls-2" transform="matrix(0.9, 0.43, -0.43, 0.9, 30.2, 178.23)">Condado</text><text class="cls-2" transform="translate(143.77 218.65) rotate(-26.35)">del Rey</text><text class="cls-3" transform="translate(0 259.27)">Chamber of Commerce</text></svg>